<svg id="SvgjsSvg1001" width="288" height="288" xmlns="http://www.w3.org/2000/svg" version="1.1" xmlns:xlink="http://www.w3.org/1999/xlink" xmlns:svgjs="http://svgjs.com/svgjs"><defs id="SvgjsDefs1002"></defs><g id="SvgjsG1008"><svg xmlns="http://www.w3.org/2000/svg" width="288" height="288" enable-background="new 0 0 55.76 55.76" viewBox="0 0 55.76 55.76"><path d="M6.343,33.003c-2.584,0.924-4.09,2.025-4.09,3.209c0,3.271,11.474,5.926,25.627,5.926c14.154,0,25.627-2.654,25.627-5.926
			c0-1.184-1.506-2.285-4.091-3.209c0.032,0.8,0.067,1.599,0.084,2.43l0.015,0.773l-0.658,0.406
			c-0.359,0.222-3.826,2.124-17.413,2.558v0.09h-1.354c-0.77,0-1.506-0.007-2.195-0.015c-0.72,0.008-1.455,0.015-2.225,0.015
			l-1.354-0.052V39.17c-13.587-0.434-17.054-2.336-17.414-2.558l-0.658-0.406l0.016-0.773C6.276,34.602,6.31,33.803,6.343,33.003z" fill="#ffffff" class="color000 svgShape"></path><path d="M7.614,35.459c0,0,3.312,2.045,18.057,2.394v0.051c0.765,0,1.495-0.005,2.21-0.013c0.715,0.008,1.446,0.013,2.211,0.013
			v-0.051c14.742-0.349,18.054-2.394,18.054-2.394c-0.02-0.994-0.057-1.952-0.1-2.901C47.281,15.463,42.996,5.683,41.659,2.92
			c-0.938-1.937-3.119-2.919-5.277-2.919c-1.091,0-2.177,0.251-3.092,0.756c-1.538,0.847-3.76,1.068-5.409,1.099
			c-1.648-0.031-3.871-0.251-5.407-1.1C21.558,0.251,20.473,0,19.382,0c-2.159,0-4.342,0.982-5.278,2.918
			c-1.336,2.763-5.621,12.544-6.389,29.639C7.672,33.507,7.633,34.465,7.614,35.459z M9.326,29.185c0,0,0.014-2.927,0.279-4.877
			c0,0,10.651,1.473,18.42,1.481c2.043-0.002,4.292-0.109,6.491-0.265l-0.054-0.683c-0.07-0.892,0.599-1.674,1.488-1.743
			l6.322-0.493c0.839,0,1.549,0.656,1.614,1.494l0.039,0.503c1.424-0.174,2.298-0.296,2.298-0.296
			c0.283,2.47,0.211,4.879,0.211,4.879c-0.688,0.145-1.397,0.272-2.116,0.393l0.082,1.03c0.029,0.367-0.072,0.722-0.272,1.022
			c-0.036,0.053-0.068,0.108-0.111,0.159c-0.281,0.328-0.674,0.528-1.104,0.563l-6.323,0.492c-0.84,0-1.549-0.657-1.614-1.494
			l-0.066-0.829c-3.638,0.179-6.438,0.143-6.886,0.135c-0.463,0.008-3.385,0.044-7.161-0.145
			C17.335,30.338,13.061,29.966,9.326,29.185z" fill="#ffffff" class="color000 svgShape"></path><path d="M36.124 27.25l2.661-.21c.413-.04.757.27.789.673.032.404-.271.757-.674.79l-2.661.21.137 1.728.015.183.049.612c.006.081.073.143.151.143v.723.011-.011l.013-.724 3.969-.312 2.227-.175c.072-.006.146-.094.141-.166l-.072-.925-.396-5.025-.045-.56c-.006-.081-.072-.142-.151-.142l-6.207.489c-.084.006-.148.081-.141.167l.054.687L36.124 27.25zM26.45 53.581c0 0 .844-.758.506-1.989-.337-1.231-1.351-.946-1.351-.946l-9.456 1.649-9.202-6.129 9.371 9.595L26.45 53.581zM39.62 52.293l-9.455-1.649c0 0-1.014-.285-1.352.947-.338 1.23.507 1.987.507 1.987l10.13 2.179 9.371-9.594L39.62 52.293z" fill="#ffffff" class="color000 svgShape"></path></svg></g></svg>